<svg t="1691062934134" class="icon" viewBox="0 0 1024 1024" version="1.1" xmlns="http://www.w3.org/2000/svg" p-id="12965" width="128" height="128"><path d="M1024 0H0v1024h1024V0z" fill="#202425" opacity=".01" p-id="12966"></path><path d="M307.2 204.8a68.266667 68.266667 0 0 1 68.266667-68.266667h512a68.266667 68.266667 0 0 1 68.266666 68.266667v614.4a68.266667 68.266667 0 0 1-68.266666 68.266667H375.466667a68.266667 68.266667 0 0 1-68.266667-68.266667V204.8z" fill="#FFAA44" p-id="12967"></path><path d="M443.733333 162.6112a34.133333 34.133333 0 0 0-25.156266-32.938667l-307.2-83.797333A34.133333 34.133333 0 0 0 68.266667 78.848v866.372267a34.133333 34.133333 0 0 0 43.1104 32.904533l307.2-83.7632a34.133333 34.133333 0 0 0 25.156266-32.938667V162.6112z" fill="#FF7744" p-id="12968"></path><path d="M745.506133 319.214933a17.066667 17.066667 0 0 0-30.037333-11.127466l-165.205333 192.8192a17.066667 17.066667 0 0 0 0 22.186666l165.205333 192.8192a17.066667 17.066667 0 0 0 30.037333-11.127466V580.266667h85.333334a17.066667 17.066667 0 0 0 17.066666-17.066667v-102.4a17.066667 17.066667 0 0 0-17.066666-17.066667h-85.333334V319.214933zM341.333333 443.733333a34.133333 34.133333 0 0 0-34.133333 34.133334v68.266666a34.133333 34.133333 0 1 0 68.266667 0v-68.266666a34.133333 34.133333 0 0 0-34.133334-34.133334z" fill="#FFFFFF" p-id="12969"></path></svg>