<svg t="1691063422972" class="icon" viewBox="0 0 1024 1024" version="1.1" xmlns="http://www.w3.org/2000/svg" p-id="27120" width="128" height="128"><path d="M794.3168 918.9376H325.888c-53.504 0-96.8704-43.3664-96.8704-96.8704v-260.6592c0-53.504 43.3664-96.8704 96.8704-96.8704h468.4288c53.504 0 96.8704 43.3664 96.8704 96.8704v260.6592c0 53.504-43.4176 96.8704-96.8704 96.8704z" fill="#56E5BE" p-id="27121"></path><path d="M794.3168 918.9376H386.048c-53.504 0-96.8704-43.3664-96.8704-96.8704v-215.9616c0-53.504 43.3664-96.8704 96.8704-96.8704h408.2688c53.504 0 96.8704 43.3664 96.8704 96.8704v215.9616c0 53.504-43.4176 96.8704-96.8704 96.8704z" fill="#50DDB8" p-id="27122"></path><path d="M794.3168 918.9376H450.816c-53.504 0-96.8704-43.3664-96.8704-96.8704v-162.2528c0-53.504 43.3664-96.8704 96.8704-96.8704h343.4496c53.504 0 96.8704 43.3664 96.8704 96.8704v162.2528c0.0512 53.504-43.3664 96.8704-96.8192 96.8704z" fill="#42D3AD" p-id="27123"></path><path d="M794.3168 360.4992h-40.4992V296.2432c0-130.2016-105.9328-236.1344-236.1344-236.1344S281.4976 165.9904 281.4976 296.2432v64.256H231.936c-70.3488 0-127.5904 57.2416-127.5904 127.5904v333.9776c0 70.3488 57.2416 127.5904 127.5904 127.5904h562.3808c70.3488 0 127.5904-57.2416 127.5904-127.5904V488.0896c0-70.3488-57.2416-127.5904-127.5904-127.5904zM342.9376 296.2432c0-96.3584 78.3872-174.6944 174.6944-174.6944s174.6944 78.3872 174.6944 174.6944v63.7952H342.9376V296.2432z m517.5296 525.824c0 36.4544-29.696 66.1504-66.1504 66.1504H231.8848c-36.4544 0-66.1504-29.696-66.1504-66.1504V488.0896c0-36.5056 29.696-66.1504 66.1504-66.1504h562.3808c36.4544 0 66.1504 29.696 66.1504 66.1504v333.9776z" fill="#2E3138" p-id="27124"></path><path d="M515.7376 740.096c-16.9472 0-30.72-13.7728-30.72-30.72v-150.016c0-16.9472 13.7728-30.72 30.72-30.72s30.72 13.7728 30.72 30.72v150.016c0 16.9472-13.7728 30.72-30.72 30.72z" fill="#2E3138" p-id="27125"></path></svg>