<svg t="1691067104926" class="icon" viewBox="0 0 1024 1024" version="1.1" xmlns="http://www.w3.org/2000/svg" p-id="57473" width="128" height="128"><path d="M733.184 400.896c0-1.536 1.024-3.072 1.024-4.608V283.136c0-125.952-99.84-228.352-222.208-228.352s-222.208 102.4-222.208 228.352v113.152c0 1.536 0.512 3.072 1.024 4.608-69.12 61.44-112.64 150.528-112.64 249.856 0 184.32 150.016 334.336 334.336 334.336s334.336-150.016 334.336-334.336c-0.512-99.328-44.544-188.416-113.664-249.856z m-375.296-117.76c0-88.064 69.12-160.256 154.112-160.256s154.112 71.68 154.112 160.256v71.168c-46.08-24.064-98.304-37.888-154.112-37.888-55.808 0-108.032 13.824-154.112 37.888v-71.168zM512 916.48c-146.432 0-265.728-119.296-265.728-266.24S365.568 384 512 384s266.24 119.296 266.24 266.24S658.432 916.48 512 916.48z m34.304-311.296v95.744a34.304 34.304 0 0 1-68.608 0v-95.744a34.304 34.304 0 0 1 68.608 0z" p-id="57474" fill="#707070"></path></svg>