<svg t="1691066939526" class="icon" viewBox="0 0 1024 1024" version="1.1" xmlns="http://www.w3.org/2000/svg" p-id="53278" width="128" height="128"><path d="M835.535442 842.110558L826.14587 61.702908A62.776002 62.776002 0 0 0 763.369867 0L247.748175 6.170291a61.166361 61.166361 0 0 0-24.144616 5.36547A61.971182 61.971182 0 0 0 190.06937 47.216138a61.971182 61.971182 0 0 0-4.024103 22.266702v74.84831l10.73094 817.697668a63.044276 63.044276 0 0 0 62.507729 61.971182L776.246996 1017.561436a60.093267 60.093267 0 0 0 43.728583-18.779146 61.434635 61.434635 0 0 0 17.974325-44.26513zM763.638141 34.070736a28.436992 28.436992 0 0 1 28.436992 26.827352v64.653916H220.920824V67.604925a28.436992 28.436992 0 0 1 26.827351-28.705266zM221.189097 160.964108h571.95913l8.048206 664.245219H229.237303z m8.584753 697.511134h571.690856v95.505371a29.241813 29.241813 0 0 1-8.048205 20.120514 26.827351 26.827351 0 0 1-20.120514 8.584752l-514.012051 7.243385a28.436992 28.436992 0 0 1-28.436992-26.827352z" fill="#707070" p-id="53279"></path><path d="M516.289962 973.832853a51.240241 51.240241 0 0 0 0-102.212209 51.240241 51.240241 0 0 0-35.948651 15.291591 50.43542 50.43542 0 0 0-14.48677 36.485198 50.971968 50.971968 0 0 0 50.435421 50.43542z m-21.730155-72.433849a30.314907 30.314907 0 0 1 21.461881-9.121299 30.583181 30.583181 0 0 1 0 60.898088 30.583181 30.583181 0 0 1-21.730154-51.776789zM454.31878 95.505371h115.894158a17.169505 17.169505 0 0 0 17.169505-17.169505 17.169505 17.169505 0 0 0-17.169505-16.901231H454.31878a17.169505 17.169505 0 0 0-17.169505 16.901231 17.169505 17.169505 0 0 0 17.169505 17.169505zM485.438508 655.660466h-17.437779a16.901231 16.901231 0 0 0-16.901231 16.901232 17.169505 17.169505 0 0 0 16.901231 17.169505h17.437779a17.169505 17.169505 0 0 0 16.901231-17.169505 16.901231 16.901231 0 0 0-16.901231-16.901232zM705.691062 689.731203H722.592293a17.169505 17.169505 0 0 0 16.901232-17.169505 16.901231 16.901231 0 0 0-16.901232-16.901232h-17.169504a17.169505 17.169505 0 0 0-17.169505 16.901232 17.169505 17.169505 0 0 0 17.437778 17.169505zM326.888861 655.660466h-17.169504a16.901231 16.901231 0 0 0-16.901232 16.901232 17.169505 17.169505 0 0 0 16.901232 17.169505h17.169504a17.169505 17.169505 0 0 0 17.169505-17.169505 17.169505 17.169505 0 0 0-17.169505-16.901232zM406.297821 655.660466h-17.437778a16.901231 16.901231 0 0 0-16.901231 16.901232 17.169505 17.169505 0 0 0 16.901231 17.169505h17.437778a17.169505 17.169505 0 0 0 16.901232-17.169505 16.901231 16.901231 0 0 0-16.901232-16.901232zM564.579194 655.660466h-17.437778a16.901231 16.901231 0 0 0-16.901232 16.901232 17.169505 17.169505 0 0 0 16.901232 17.169505h17.437778a17.169505 17.169505 0 0 0 16.901231-17.169505 16.901231 16.901231 0 0 0-16.901231-16.901232zM643.719881 655.660466h-17.169505a17.169505 17.169505 0 0 0-17.169505 16.901232 17.169505 17.169505 0 0 0 17.169505 17.169505h17.169505a17.169505 17.169505 0 0 0 16.901231-17.169505 16.901231 16.901231 0 0 0-16.901231-16.901232zM326.888861 706.632434h-17.169504a16.901231 16.901231 0 1 0 0 33.802463h17.169504a16.901231 16.901231 0 1 0 0-33.802463zM564.579194 706.632434h-17.437778a16.901231 16.901231 0 1 0 0 33.802463h17.437778a16.901231 16.901231 0 1 0 0-33.802463zM643.719881 706.632434h-17.169505a16.901231 16.901231 0 1 0 0 33.802463h17.169505a16.901231 16.901231 0 0 0 0-33.802463zM406.297821 706.632434h-17.437778a16.901231 16.901231 0 0 0 0 33.802463h17.437778a16.901231 16.901231 0 1 0 0-33.802463zM722.592293 706.632434h-17.169504a16.901231 16.901231 0 1 0 0 33.802463H722.592293a16.901231 16.901231 0 0 0 0-33.802463zM485.438508 706.632434h-17.437779a16.901231 16.901231 0 0 0 0 33.802463h17.437779a16.901231 16.901231 0 1 0 0-33.802463zM613.404974 501.67147l-57.947079-24.681163a20.388787 20.388787 0 0 0-15.828138 0 19.85224 19.85224 0 0 0-11.267487 10.999214 16.632958 16.632958 0 0 1-15.023317 9.92612 16.096411 16.096411 0 0 1-9.121299-2.951009 166.597852 166.597852 0 0 1-37.826566-35.948651 180.816348 180.816348 0 0 1-30.58318-61.434634 16.632958 16.632958 0 0 1 1.877914-13.413676 16.364684 16.364684 0 0 1 11.804035-7.243385 19.047419 19.047419 0 0 0 17.169505-19.047419v-1.877915l-6.706838-59.288446a18.779146 18.779146 0 0 0-20.657061-16.901232l-29.510086 5.633744c-16.096411 1.609641-16.096411 7.779932-16.096411 11.535761v9.92612c0 34.875557 4.56065 120.991354 46.411318 171.695049a269.614881 269.614881 0 0 0 109.18732 73.775216l36.216924 15.29159a20.388787 20.388787 0 0 0 15.828137 0 20.657061 20.657061 0 0 0 11.535762-11.267488l11.804034-26.827351a20.925334 20.925334 0 0 0-11.267487-27.900445z" fill="#707070" p-id="53280"></path><path d="M620.916632 484.233691l-57.947079-24.681163a40.777574 40.777574 0 0 0-30.314907 0 41.582395 41.582395 0 0 0-20.388787 18.510873A157.476552 157.476552 0 0 1 481.146132 447.748494a166.866125 166.866125 0 0 1-26.827352-53.654703 37.826565 37.826565 0 0 0 30.583181-37.290018 20.388787 20.388787 0 0 0 0-4.024103L478.73167 295.100865a38.363112 38.363112 0 0 0-41.850668-34.070737l-29.77836 5.633744c-26.827351 3.219282-32.461095 20.388787-32.461095 30.046634v10.194393c0 36.753471 4.828923 128.234739 50.43542 183.767357a295.100865 295.100865 0 0 0 116.430705 79.140686l36.485198 15.29159a38.363112 38.363112 0 0 0 15.559864 3.219283 41.314121 41.314121 0 0 0 14.755043-2.951009 39.436206 39.436206 0 0 0 21.461881-21.193608L642.110239 536.547026a40.241027 40.241027 0 0 0-21.193607-52.313335z m3.487556 44.801677l-11.804035 26.827351a20.657061 20.657061 0 0 1-11.535761 11.267488 20.388787 20.388787 0 0 1-15.828137 0l-36.216925-15.29159a269.614881 269.614881 0 0 1-109.18732-73.775216C397.981342 429.237621 393.420693 341.780456 393.420693 306.904899v-9.92612c0-2.414462 0-9.92612 16.09641-11.535761l29.510087-5.633744a18.779146 18.779146 0 0 1 20.65706 16.901232l6.706838 59.288446v1.877915a19.047419 19.047419 0 0 1-17.169505 19.047419 16.364684 16.364684 0 0 0-11.804034 7.243385 16.632958 16.632958 0 0 0-1.877915 13.413676 180.816348 180.816348 0 0 0 30.583181 61.434634 166.597852 166.597852 0 0 0 37.826565 35.948651 16.096411 16.096411 0 0 0 9.1213 2.951009 16.632958 16.632958 0 0 0 15.023316-9.92612 19.85224 19.85224 0 0 1 11.267488-10.999214 20.388787 20.388787 0 0 1 15.828137 0l57.947079 24.681163a20.925334 20.925334 0 0 1 11.267488 27.363898z" fill="#707070" p-id="53281"></path></svg>