<svg t="1691049107211" class="icon" viewBox="0 0 1024 1024" version="1.1" xmlns="http://www.w3.org/2000/svg" p-id="916" width="128" height="128"><path d="M164.231887 948.488508c0 41.556242 75.713977 75.495916 168.763823 75.495916s168.763823-33.939674 168.763823-75.495916-75.713977-75.542643-168.763823-75.542643-168.763823 33.456824-168.763823 75.542643z m358.009826 0c0 41.556242 75.713977 75.495916 168.763823 75.495916 93.579423 0 168.763823-33.939674 168.763823-75.495916s-75.713977-75.542643-168.763823-75.542643-168.685944 33.456824-168.685944 75.542643z" fill="#F5B824" p-id="917"></path><path d="M885.126766 507.194865l-37.537685-118.843375C846.997201 1.55758 528.908157 0 512.195321 0S177.409016 1.55758 177.409016 388.35149l-38.067262 118.843375s-127.721583 157.782882-41.743151 295.083583c9.890635 6.682019 10.482515 30.731059 62.568-77.349437A360.03468 360.03468 0 0 0 510.108163 968.814931h3.115161a360.03468 360.03468 0 0 0 349.925984-243.88592c52.147788 108.111647 53.206942 86.05631 62.568 77.349437 87.146616-137.300701-40.590542-295.083583-40.590542-295.083583z" fill="#121213" p-id="918"></path><path d="M526.213543 253.885585c0 51.213239 29.39154 92.769481 65.885646 92.769481s65.885646-41.556242 65.885645-92.769481-29.39154-92.73833-65.885645-92.73833-65.885646 41.493939-65.885646 92.73833z m-169.2934 0c0 51.213239 29.39154 92.769481 65.885646 92.769481s65.885646-41.556242 65.885645-92.769481-29.39154-92.73833-65.885645-92.73833-65.87007 41.493939-65.87007 92.73833z" fill="#FFFFFF" p-id="919"></path><path d="M413.834126 254.259404c0 21.806124 12.647552 40.029813 28.379113 40.029813s28.379113-17.725264 28.379112-40.029813-12.694279-40.060965-28.379112-40.060965-28.379113 18.254841-28.379113 40.060965z" fill="#161616" p-id="920"></path><path d="M790.675098 472.585431a450.280882 450.280882 0 0 1-278.448626 82.551755s-161.988349 10.482515-278.448626-82.551755c0 0-111.148928 479.999513 278.448626 479.999513s278.448626-479.999513 278.448626-479.999513z" fill="#FAFAFB" p-id="921"></path><path d="M848.866297 390.625557s-92.286631 160.16598-336.608673 160.16598S175.648951 390.625557 175.648951 390.625557a512.661972 512.661972 0 0 0-38.269748 117.581735 464.267952 464.267952 0 0 0 132.659112 98.85962c-3.115161 34.469251-7.787901 87.224495-7.336203 114.061604 0.529577 41.945637 27.257655 44.609099 88.610742 50.683662s48.767838-10.139848 48.767838-37.023683v-84.794671a438.334241 438.334241 0 0 0 111.678506 7.616568 486.323289 486.323289 0 0 0 374.893996-150.555709c0.48285 1.028003 1.635459-13.722282-37.786897-116.429126z" fill="#D53118" p-id="922"></path><path d="M686.036855 407.665485a468.39554 468.39554 0 0 0-347.698645 0c-25.341831 8.628995-35.481679 15.201983-35.481678 23.846554a7.414082 7.414082 0 0 0 2.554431 4.049709 449.268454 449.268454 0 0 0 414.596718 0c1.55758-2.024854 2.554432-3.115161 2.554431-4.049709-0.498426-8.628995-10.591546-15.201983-36.525257-23.846554z" fill="#F0B225" p-id="923"></path><path d="M577.426782 226.503324c12.304884 0 22.41358 17.476051 22.413581 39.11084h7.476385c0-28.550446-13.177129-51.836272-29.889966-51.836271s-29.889965 23.285825-29.889965 51.836271h7.476385c-0.015576-21.977458 10.108696-39.110841 22.41358-39.11084z" fill="#0F0F0F" p-id="924"></path></svg>