<svg t="1691067496786" class="icon" viewBox="0 0 1461 1024" version="1.1" xmlns="http://www.w3.org/2000/svg" p-id="80975" width="128" height="128"><path d="M358.48621 184.164374h704.272761q93.903035 0 93.903034 93.903034v464.164908q0 93.903035-93.903034 93.903035H358.48621q-93.903035 0-93.903035-93.903035V278.067408q0-93.903035 93.903035-93.903034z" fill="#FFE9C6" p-id="80976"></path><path d="M1021.645883 532.478438H786.888296a16.597542 16.597542 0 0 0-18.784513 18.784512 16.597542 16.597542 0 0 0 18.784513 18.784512h234.757587a16.597542 16.597542 0 0 0 18.784512-18.784512 16.597542 16.597542 0 0 0-18.774749-18.784512z" fill="#FCAF5A" p-id="80977"></path><path d="M1021.509197 420.757454H730.4176a16.597542 16.597542 0 0 0-18.784512 18.784512 16.597542 16.597542 0 0 0 18.784512 18.784512h291.10136a16.597542 16.597542 0 0 0 18.784513-18.784512 16.597542 16.597542 0 0 0-18.784513-18.784512z" fill="#FCAF5A" p-id="80978"></path><path d="M1024.076934 309.036469H719.551091q-16.031273 0-16.031273 18.784512t16.031273 18.784513h304.525843q16.031273 0 16.031273-18.784513t-16.031273-18.784512z" fill="#FCAF5A" p-id="80979"></path><path d="M397.246352 662.827722h619.732692a16.597542 16.597542 0 0 1 18.784513 18.784513 16.597542 16.597542 0 0 1-18.784513 18.784512H397.265878a16.597542 16.597542 0 0 1-18.804038-18.794276 16.597542 16.597542 0 0 1 18.804038-18.774749z" fill="#FCAF5A" p-id="80980"></path><path d="M365.07641 981.734847c0 23.334191 155.558022 42.255389 347.445134 42.25539s347.445134-18.921198 347.445134-42.25539-155.567785-42.255389-347.406081-42.255389-347.484187 18.921198-347.484187 42.255389z" fill="#EBE4D2" p-id="80981"></path><path d="M31.202207 838.097766q-65.64816-34.854838 7.078364-46.775779 11.383961-76.153428 44.676678-7.410314 72.677708-12.204075 20.502846 42.206573 33.546561 68.625955-31.98444 33.497745-21.723254 22.777686-32.335917 22.777686-14.781576 0-7.957057-44.344727z m1335.975211-713.694307q-65.64816-34.874365 7.078363-46.785542 11.383961-76.153428 44.676678-7.410314 72.677708-12.204075 20.502846 42.206573 33.546561 68.635718-31.98444 33.497745-21.703727 22.816739-32.306627 22.816739-14.781576 0-8.005873-44.325201z" fill="#FFA3A3" p-id="80982"></path><path d="M1399.464519 554.035716a65.862952 65.862952 0 1 1 62.035754-65.73603 63.841957 63.841957 0 0 1-62.035754 65.73603z m0-93.903035a28.225585 28.225585 0 1 0 26.604883 28.167005 27.337128 27.337128 0 0 0-26.604883-28.167005zM61.321865 131.462296A63.841957 63.841957 0 0 1 0.037881 65.462658 63.763851 63.763851 0 0 1 61.819791-0.009763a63.802904 63.802904 0 0 1 61.508538 65.736029 64.037222 64.037222 0 0 1-62.006464 65.73603z m0-93.903035a27.337128 27.337128 0 0 0-26.272933 28.313454 27.337128 27.337128 0 0 0 26.468198 28.03032 27.337128 27.337128 0 0 0 26.360802-28.167005 27.454287 27.454287 0 0 0-26.556067-28.176769z" fill="#88A3FF" p-id="80983"></path></svg>