<svg t="1691067182566" class="icon" viewBox="0 0 1024 1024" version="1.1" xmlns="http://www.w3.org/2000/svg" p-id="58769" width="64" height="64"><path d="M479.495229 614.798832c0.997079 0 1.994158 0.099708 2.991236 0.099707 0.997079-0.099708 1.994158-0.099708 2.991237-0.099707h-5.982473zM485.377994 830.865823c-0.997079 0-1.994158-0.099708-2.991236-0.099708-0.997079 0.099708-1.994158 0.099708-2.991237 0.099708h5.982473z" p-id="58770" fill="#707070"></path><path d="M842.830769 430.040117V351.470302C842.830769 153.35073 695.362804 0 506.017527 0 314.378968 0 180.969815 159.931451 180.969815 351.470302v78.569815H50.352483v477.600779c0 64.311587 52.546056 116.359104 117.256475 116.359104h689.081208c64.710419 0 117.156767-52.047517 117.156767-116.359104v-477.600779H842.830769zM246.77702 351.470302c0-152.951899 106.288608-301.915482 259.140799-301.915482 149.262707 0 272.401947 143.878481 272.401947 301.915482v78.569815H246.77702V351.470302z m674.723272 558.563583c0 25.425511-32.305355 45.965336-58.129698 45.965336h-714.90555c-25.824343 0-46.862707-20.639533-46.862707-45.965336V489.964557h819.897955v420.069328z" p-id="58771" fill="#707070"></path><path d="M495.249075 859.980526c-75.379163-0.099708-117.356183-45.167673-117.356183-118.054138 0-55.936125 19.243622-86.247322 67.0037-105.391237v55.836417s0 16.850633 16.850633 16.850633 16.850633-16.850633 16.850633-16.850633V591.866018h-100.704966s-16.850633 0-16.850633 16.850632 16.850633 16.850633 16.850633 16.850633h20.938656C357.452775 656.775852 344.391042 686.488802 344.391042 741.32814c0 83.156378 65.906913 152.154236 150.858033 152.253944 5.18481 0 16.850633-0.498539 16.850633-16.850633 0-17.249464-11.765531-16.850633-17.050049-16.850633h0.199416M528.850633 625.367868c75.379163 0.099708 117.356183 45.167673 117.356183 118.054138 0 55.936125-19.243622 86.247322-67.0037 105.391236v-55.836416s0-16.850633-16.850633-16.850633-16.850633 16.850633-16.850633 16.850633v100.50555h100.50555s16.850633 0 16.850633-16.850633-16.850633-16.850633-16.850633-16.850633h-20.938656c41.378773-31.308277 54.440506-61.021227 54.440506-115.960273 0-83.156378-65.906913-152.154236-150.858033-152.253943-5.18481 0-16.850633 0.498539-16.850633 16.850633 0 17.249464 11.765531 16.850633 17.050049 16.850633" p-id="58772" fill="#707070"></path></svg>