<svg t="1691063321943" class="icon" viewBox="0 0 1066 1024" version="1.1" xmlns="http://www.w3.org/2000/svg" p-id="14153" width="128" height="128"><path d="M439.808 29.824l-3.072 2.474667a367.488 367.488 0 0 1-141.184 81.365333 550.016 550.016 0 0 1-159.274667 39.722667c-46.208 7.381333-79.189333 44.458667-81.152 89.045333l-1.109333 62.08c-0.426667 49.749333-0.682667 124.032-0.682667 215.808 0 227.84 266.538667 493.013333 446.72 493.013333 188.672 0 407.04-209.194667 441.813334-485.504l1.152-22.4 1.877333-43.093333c2.346667-62.805333 2.816-117.76 1.962667-164.565333l-0.768-29.866667 3.968-0.938667-2.816-27.562666a98.773333 98.773333 0 0 0-77.994667-86.613334 1224.106667 1224.106667 0 0 1-167.68-38.570666A601.898667 601.898667 0 0 1 559.744 30.72 102.101333 102.101333 0 0 0 439.808 29.866667z m81.408 51.925333a661.546667 661.546667 0 0 0 158.848 92.672c60.032 18.517333 118.485333 32 177.621333 41.258667l4.352 1.28c6.997333 2.688 13.141333 8.106667 17.066667 15.061333l1.365333 2.773334 1.28 24.106666 0.426667 10.922667c2.090667 65.450667 1.408 150.570667-4.010667 252.288-30.72 243.114667-222.848 427.221333-378.112 427.221333-144.896 0-382.72-236.586667-382.72-429.013333l0.298667-156.842667c0.298667-61.312 0.768-102.954667 1.408-118.229333a30.08 30.08 0 0 1 25.301333-28.416 598.442667 598.442667 0 0 0 172.885334-43.008l14.677333-4.821333a427.264 427.264 0 0 0 136.277333-78.976l9.770667-8.789334-0.768 0.512a37.717333 37.717333 0 0 1 44.032 0z" fill="#000000" p-id="14154"></path><path d="M755.498667 407.381333l-280.490667 264.789334a38.101333 38.101333 0 0 1-46.634667 4.565333l-7.424-6.272-154.752-161.152a38.698667 38.698667 0 0 1 56.917334-52.394667l127.445333 133.845334 252.586667-239.232a38.613333 38.613333 0 1 1 52.352 56.96v-1.109334z" fill="#000000" p-id="14155"></path></svg>