<svg t="1691066673972" class="icon" viewBox="0 0 1024 1024" version="1.1" xmlns="http://www.w3.org/2000/svg" p-id="45762" width="128" height="128"><path d="M983.605 819.638c3.383 10.148 5.97 23.282 7.562 39.2 1.592 15.92 2.388 3.185 2.388 19.104 0 15.919-1.194 31.042-3.383 45.37-2.388 14.327-5.97 25.072-10.547 32.435-3.382 4.775-13.133 9.75-29.052 15.322-15.92 5.571-182.076 52.931-415.69 52.931-213.515 0-397.381-34.624-426.633-41.19-29.251-6.567-46.762-12.14-52.93-16.716-7.563-5.572-13.134-22.088-16.716-49.747-3.582-27.859-2.189-34.823 4.577-78.203 4.179-25.073 14.327-44.176 30.445-56.911 16.317-12.935 35.62-23.083 57.508-30.446 22.088-7.561 124.369-42.782 147.85-48.951 23.48-6.169 43.976-14.924 61.487-26.466 14.327-8.755 25.272-17.312 33.032-25.47 7.76-8.159 13.333-16.317 16.317-24.476 2.985-8.159 4.577-16.516 4.577-25.47 0-8.756-0.398-18.308-0.995-28.655-1.393-16.317-6.566-28.854-15.72-37.61-9.153-8.755-19.302-17.908-31.042-27.46-5.572-4.775-10.149-11.342-14.328-19.899-4.178-8.556-7.76-17.113-11.143-25.868-3.383-10.149-6.766-20.695-10.148-31.44-4.776-1.394-9.552-3.582-14.328-7.164-4.178-3.383-8.556-8.159-13.332-14.327-4.776-6.17-8.755-14.925-12.337-26.466-3.383-11.342-4.577-21.889-3.383-31.042 0.995-9.154 2.786-17.114 5.572-23.88 2.586-7.56 6.765-14.525 12.337-21.49-0.597-25.67 0.597-51.538 4.179-77.407 2.587-21.69 7.561-44.773 14.725-69.248s17.511-46.564 31.042-66.065c12.935-18.307 27.262-33.43 43.181-45.37 15.92-11.939 32.037-21.291 48.354-28.057 16.318-6.766 32.635-11.342 49.35-14.327C492.897 1.592 509.015 0 524.735 0c19.501 0 38.604 2.388 56.513 7.164 17.91 4.775 34.625 10.745 50.345 18.307 15.52 7.561 29.65 15.72 41.588 24.873 12.338 9.154 22.088 18.506 29.65 28.058 16.914 21.69 29.65 45.568 38.206 71.636 8.556 26.068 14.526 50.543 17.71 73.626 4.179 27.063 5.77 54.324 5.174 81.387 4.775 2.587 8.556 6.766 11.143 12.337 2.587 4.776 4.975 10.746 6.567 18.307 1.592 7.562 1.79 16.516 0.398 27.46-1.99 14.328-5.373 25.472-9.552 34.028-4.576 8.557-9.352 15.123-14.725 19.899-6.169 5.572-12.536 9.154-19.302 11.143-2.587 10.746-5.77 21.491-9.153 31.44-3.383 8.756-7.363 17.512-11.542 25.87-4.577 8.556-9.352 15.123-14.725 19.898-6.169 5.572-11.74 9.95-17.312 13.73-5.572 3.582-10.149 7.562-14.327 11.542-4.18 4.179-7.562 8.955-10.149 14.725-2.587 5.77-4.776 12.736-6.169 20.894-1.99 10.149-2.586 20.496-1.99 31.042 0.598 10.348 3.383 21.093 8.16 31.44 4.775 10.348 12.535 20.497 23.48 30.048 10.745 9.552 25.47 17.91 43.778 25.47 16.914 6.767 35.619 12.736 55.518 17.711 20.098 5.174 100.688 39.798 119.194 46.962 18.506 7.163 35.222 16.118 49.748 26.863 14.128 11.94 24.475 26.068 30.644 43.778zM531.501 957.935c3.383 0 8.557-2.188 15.72-6.566 7.164-4.577 14.128-9.552 20.894-15.72 6.766-6.169 12.735-12.338 17.71-18.307 5.174-6.17 7.562-10.746 7.562-14.328 0-4.178-0.995-11.143-2.985-21.49-1.99-10.149-4.577-21.491-7.164-33.43-2.587-12.338-5.571-24.277-8.158-36.217-2.587-11.94-5.174-21.49-7.164-29.052 6.766-5.572 12.536-11.343 17.312-17.71 4.776-6.567 7.164-13.134 7.164-19.9 0-5.571-1.791-10.944-5.572-16.714-3.582-5.771-7.96-10.547-12.735-14.726-5.572-4.775-11.144-9.551-17.312-14.327H506.03c-6.765 4.776-12.536 9.552-17.312 14.327-4.179 4.18-7.76 8.756-11.143 14.328-3.383 5.571-5.174 10.745-5.174 16.317 0 4.179 2.388 9.551 7.562 16.317 5.173 6.766 11.342 13.332 18.705 19.302a993.137 993.137 0 0 0-8.159 26.465c-3.383 11.343-6.567 23.481-9.551 36.217-2.985 12.536-5.771 24.475-8.159 35.619-2.388 11.143-3.383 19.302-3.383 24.873 0 3.383 2.388 8.159 7.562 14.328 5.174 6.168 11.143 12.337 18.307 18.307 7.164 6.168 14.128 11.342 20.894 15.72 6.964 3.98 12.138 6.367 15.322 6.367z" fill="#CDCDCD" p-id="45763"></path></svg>